Coordinates
version=1
nRows=10
nColumns=40
inDegrees=yes

Units are S.I. units (second, meters, Newtons, ...)
Angles are in degrees.

endheader
time	pelvis_tilt	pelvis_list	pelvis_rotation	pelvis_tx	pelvis_ty	pelvis_tz	hip_flexion_r	hip_adduction_r	hip_rotation_r	knee_angle_r	knee_angle_r_beta	ankle_angle_r	subtalar_angle_r	mtp_angle_r	hip_flexion_l	hip_adduction_l	hip_rotation_l	knee_angle_l	knee_angle_l_beta	ankle_angle_l	subtalar_angle_l	mtp_angle_l	lumbar_extension	lumbar_bending	lumbar_rotation	arm_flex_r	arm_add_r	arm_rot_r	elbow_flex_r	pro_sup_r	wrist_flex_r	wrist_dev_r	arm_flex_l	arm_add_l	arm_rot_l	elbow_flex_l	pro_sup_l	wrist_flex_l	wrist_dev_l
      0.00000000	      0.02649126	     -3.12248634	      0.37450010	     -1.03075123	      0.89510846	     -0.99151814	     -3.23145663	      3.72662178	    -16.40972875	    -18.03291647	     -0.31473377	     10.23763373	      6.71830858	     -8.11961358	     21.72536834	      5.21640441	      9.71810058	    -35.91036973	     -0.62675419	      4.42748074	      0.59531742	    -13.52448433	     -9.54248158	      4.35296256	      4.86980850	     20.80019218	    -13.42148193	     17.01022148	     19.95789803	     89.95437384	      0.00000000	      0.00000000	      1.70451398	      9.72343073	    -12.34236797	     20.88229910	     89.95437384	      0.00000000	      0.00000000
      0.01000000	     -0.11809823	     -3.23171216	      0.45001627	     -1.02514137	      0.89427326	     -0.99186561	     -3.44877340	      3.87354892	    -16.22048774	    -18.09421240	     -0.31580358	     10.42168706	      6.66453300	     -8.08574156	     22.39286691	      5.05833448	      9.56167311	    -33.88214654	     -0.59135501	      3.71718818	      0.16428717	    -13.30642256	     -9.52109777	      4.47496835	      4.86771373	     20.93089036	    -13.34977179	     17.07758593	     19.85316110	     89.95437384	      0.00000000	      0.00000000	      1.50169744	      9.50732278	    -12.35449812	     21.00922623	     89.95437384	      0.00000000	      0.00000000
      0.02000000	     -0.06895219	     -3.09711330	      0.40210667	     -1.01932091	      0.89376002	     -0.99201307	     -3.87127709	      3.70911382	    -16.04838894	    -18.21315678	     -0.31787955	     10.64331460	      6.49481577	     -8.04245038	     22.63493082	      4.77368436	      9.86816749	    -31.64310411	     -0.55227635	      2.46086533	     -0.54528341	    -13.01919400	     -9.73688315	      4.25660018	      4.94765564	     21.01895329	    -13.22545452	     17.11922516	     19.78827509	     89.95437384	      0.00000000	      0.00000000	      1.32873477	      9.34707382	    -12.27599691	     21.16200630	     89.95437384	      0.00000000	      0.00000000
      0.03000000	      0.01899393	     -3.06646435	      0.35229014	     -1.01324378	      0.89323538	     -0.99221699	     -4.34786105	      3.65357998	    -15.93168530	    -18.31252272	     -0.31961382	     10.74678308	      6.35957810	     -8.02378865	     22.79528470	      4.63475314	     10.28358748	    -29.43363846	     -0.51371390	      1.21077074	     -1.28695938	    -12.70156747	     -9.97905787	      4.16556459	      5.03536299	     21.03336520	    -13.10868290	     17.03725360	     19.77160898	     89.95437384	      0.00000000	      0.00000000	      1.11962250	      9.15283564	    -12.14758320	     21.29784765	     89.95437384	      0.00000000	      0.00000000
      0.04000000	     -0.22843533	     -3.25828238	      0.32052978	     -1.00749760	      0.89212229	     -0.99244740	     -4.38539799	      3.84705568	    -15.66095051	    -18.49109822	     -0.32273055	     10.74557825	      6.33514963	     -7.98864382	     23.39714871	      4.66041198	     10.28096652	    -27.40299688	     -0.47827252	      0.23021833	     -1.60831056	    -12.37824984	     -9.87196714	      4.33674333	      5.12609303	     20.96782682	    -13.08136428	     17.07720935	     19.84143017	     89.95437384	      0.00000000	      0.00000000	      0.88912033	      8.94017294	    -12.10514758	     21.47719425	     89.95437384	      0.00000000	      0.00000000
      0.05000000	     -0.34259378	     -3.23205036	      0.31073922	     -1.00154449	      0.89124570	     -0.99286957	     -4.56814332	      3.78751564	    -15.36392377	    -18.72277469	     -0.32677406	     10.84416306	      6.16516730	     -7.97466775	     23.68740709	      4.48468779	     10.56569885	    -25.22053591	     -0.44018139	     -1.14405183	     -2.01850688	    -12.00376212	     -9.90488010	      4.27049423	      5.10822985	     20.91644003	    -12.97767734	     17.13205505	     19.88086138	     89.95437384	      0.00000000	      0.00000000	      0.73172865	      8.69398051	    -11.96453047	     21.43680655	     89.95437384	      0.00000000	      0.00000000
      0.06000000	     -0.38556304	     -3.19453266	      0.20276062	     -0.99535689	      0.89045527	     -0.99318370	     -4.82464995	      3.67249450	    -15.04801395	    -19.00709309	     -0.33173636	     10.98017210	      6.06432654	     -7.97687363	     23.80490695	      4.37408978	     11.05731727	    -23.08647656	     -0.40293503	     -2.27459019	     -2.40589589	    -11.65781257	     -9.99972965	      4.17808505	      5.16537979	     20.83722162	    -12.86321132	     17.20201775	     19.86493445	     89.95437384	      0.00000000	      0.00000000	      0.56620511	      8.41676379	    -11.73875996	     21.39028193	     89.95437384	      0.00000000	      0.00000000
      0.07000000	     -0.52042597	     -3.26709397	      0.08248875	     -0.98908626	      0.88949886	     -0.99356803	     -4.97243705	      3.67703971	    -14.77668556	    -19.28406238	     -0.33657038	     11.01762827	      5.99530124	     -7.96931646	     24.01270926	      4.35835961	     11.42753107	    -21.12338643	     -0.36867264	     -3.08957061	     -2.73805593	    -11.36849610	     -9.98557826	      4.22108109	      5.29723255	     20.69157346	    -12.79276288	     17.24676528	     19.86308063	     89.95437384	      0.00000000	      0.00000000	      0.38766413	      8.13589105	    -11.54296334	     21.37175033	     89.95437384	      0.00000000	      0.00000000
      0.08000000	     -0.41957519	     -3.12948746	     -0.16918215	     -0.98252826	      0.88893641	     -0.99388290	     -5.38009373	      3.41207431	    -14.47117819	    -19.60842751	     -0.34223162	     11.16962834	      5.82647313	     -7.98834356	     23.76811389	      4.21356554	     12.26707285	    -19.08100212	     -0.33302631	     -3.87258930	     -3.23173750	    -10.97631673	    -10.23788764	      4.00874073	      5.45729244	     20.57041130	    -12.66967877	     17.31054919	     19.82648566	     89.95437384	      0.00000000	      0.00000000	      0.24156072	      7.86474098	    -11.16615820	     21.29479428	     89.95437384	      0.00000000	      0.00000000
      0.09000000	     -0.60685472	     -3.36742432	     -0.10943777	     -0.97579913	      0.88774171	     -0.99461400	     -5.58917736	      3.58353807	    -14.48547323	    -19.73517160	     -0.34444372	     11.21361994	      5.79932686	     -7.97199096	     24.25066538	      4.37778822	     12.63499895	    -17.99948785	     -0.31415033	     -3.73616799	     -3.27326062	    -10.86784208	    -10.08997231	      4.27794977	      5.35597814	     20.34749527	    -12.58854296	     17.33995834	     19.75728384	     89.95437384	      0.00000000	      0.00000000	      0.02205602	      7.58132968	    -11.19257241	     21.20533132	     89.95437384	      0.00000000	      0.00000000
